<svg fill="none" height="100%" viewBox="0 0 16 16" width="100%" xmlns="http://www.w3.org/2000/svg"><path d="m8.00001 2c-2.48528 0-4.5 2.01472-4.5 4.5v2.4014l-.96431 2.4131c-.06155.154-.04271.3285.05031.4659.09303.1373.24811.2196.41399.2196h3c0 1.1084.89164 2 2 2s2-.8916 2-2h3c.1659 0 .321-.0823.414-.2196.093-.1374.1119-.3119.0503-.4659l-.9643-2.4131v-2.4014c0-2.48528-2.0147-4.5-4.49999-4.5zm.99999 10c0 .5561-.44393 1-1 1s-1-.4439-1-1zm-4.49999-5.5c0-1.933 1.567-3.5 3.5-3.5 1.93299 0 3.49999 1.567 3.49999 3.5v2.4976c0 .06356.0121.12653.0357.18555l.726 1.81685h-8.52344l.72605-1.81685c.02358-.05902.0357-.12199.0357-.18555z" fill="#212121"/></svg>