<svg fill="none" height="100%" viewBox="0 0 16 16" width="100%" xmlns="http://www.w3.org/2000/svg"><g fill="#212121"><path d="m6 7c0-.27614.22386-.5.5-.5h3c.27614 0 .5.22386.5.5s-.22386.5-.5.5h-3c-.27614 0-.5-.22386-.5-.5z"/><path d="m6.5 8.5c-.27614 0-.5.22386-.5.5s.22386.5.5.5h2c.27614 0 .5-.22386.5-.5s-.22386-.5-.5-.5z"/><path d="m2.00001 8c0-3.31371 2.6863-6 6-6 3.31369 0 5.99999 2.68629 5.99999 6 0 3.3137-2.6863 6-5.99999 6-1.09362 0-2.12012-.293-3.00383-.805l-2.33805.7793c-.17596.0587-.36993.0151-.50391-.1131-.13397-.1283-.18592-.3202-.13497-.4986l.71161-2.4906c-.46606-.8534-.73085-1.83243-.73085-2.872zm6-5c-2.76142 0-5 2.23858-5 5 0 .93308.25512 1.80506.69912 2.5517.07039.1183.08884.2605.05101.3929l-.50895 1.7813 1.65819-.5527c.14261-.0476.29905-.0284.42598.0521.77318.4906 1.68997.7747 2.67465.7747 2.76139 0 4.99999-2.2386 4.99999-5 0-2.76142-2.2386-5-4.99999-5z"/></g></svg>